<svg version="1.1" id="Layer_1" xmlns="http://www.w3.org/2000/svg" xmlns:xlink="http://www.w3.org/1999/xlink" x="0px" y="0px"
	 width="100%" viewBox="0 0 400 400" enable-background="new 0 0 400 400" xml:space="preserve">
<path fill="#635BFF" opacity="1.000000" stroke="none"
	d="
M185.000000,401.000000
	C123.352448,401.000000 62.204891,401.000000 1.028667,401.000000
	C1.028667,267.727448 1.028667,134.454880 1.028667,1.091157
	C134.230850,1.091157 267.461792,1.091157 400.846375,1.091157
	C400.846375,134.333191 400.846375,267.666565 400.846375,401.000000
	C329.121613,401.000000 257.310822,401.000000 185.000000,401.000000
M217.376068,177.175751
	C215.204941,176.491089 212.947800,176.000992 210.878448,175.086105
	C204.061417,172.072342 197.137726,169.226471 190.601471,165.677917
	C186.556488,163.481918 184.774384,159.246140 185.320557,154.567459
	C185.895905,149.638763 188.883453,146.266418 193.568558,144.888763
	C197.041153,143.867661 200.709854,143.163620 204.319229,143.019348
	C218.462143,142.454056 232.185837,145.047302 245.534088,149.515533
	C252.696335,151.913055 259.666931,154.883118 267.140686,157.754944
	C267.140686,139.418472 267.204681,121.441986 266.998566,103.468597
	C266.984619,102.253960 265.129852,100.327782 263.801819,99.975922
	C252.411530,96.958076 241.076996,93.357933 229.473083,91.599014
	C208.175781,88.370804 186.933441,89.056709 166.468521,96.935204
	C123.959564,113.300102 118.161339,153.976212 127.091278,179.353622
	C132.339432,194.268021 143.615784,203.848892 157.392181,210.282974
	C169.277298,215.833755 181.792526,220.019989 193.892883,225.132141
	C199.529999,227.513718 205.092133,230.272491 210.234924,233.567780
	C215.299927,236.813232 217.125259,242.084396 215.874786,248.012436
	C214.683472,253.660065 210.730438,256.772766 205.284210,258.065338
	C203.190186,258.562317 201.042465,258.968750 198.899567,259.103149
	C177.490234,260.445496 157.845291,253.913849 138.648743,245.457428
	C135.214859,243.944733 131.836685,242.305557 127.729805,240.398331
	C127.729805,259.596008 127.685867,277.894897 127.844200,296.192108
	C127.853241,297.236420 129.311676,298.780304 130.438766,299.228424
	C163.353607,312.315857 197.011871,317.002441 231.464066,306.269745
	C260.099152,297.349152 276.920837,275.496246 278.225830,247.437805
	C279.614288,217.584122 266.894623,197.591217 237.096527,184.864334
	C230.837463,182.191071 224.482941,179.741348 217.376068,177.175751
z"/>
<path fill="#FEFEFE" opacity="1.000000" stroke="none"
	d="
M217.774231,177.182190
	C224.482941,179.741348 230.837463,182.191071 237.096527,184.864334
	C266.894623,197.591217 279.614288,217.584122 278.225830,247.437805
	C276.920837,275.496246 260.099152,297.349152 231.464066,306.269745
	C197.011871,317.002441 163.353607,312.315857 130.438766,299.228424
	C129.311676,298.780304 127.853241,297.236420 127.844200,296.192108
	C127.685867,277.894897 127.729805,259.596008 127.729805,240.398331
	C131.836685,242.305557 135.214859,243.944733 138.648743,245.457428
	C157.845291,253.913849 177.490234,260.445496 198.899567,259.103149
	C201.042465,258.968750 203.190186,258.562317 205.284210,258.065338
	C210.730438,256.772766 214.683472,253.660065 215.874786,248.012436
	C217.125259,242.084396 215.299927,236.813232 210.234924,233.567780
	C205.092133,230.272491 199.529999,227.513718 193.892883,225.132141
	C181.792526,220.019989 169.277298,215.833755 157.392181,210.282974
	C143.615784,203.848892 132.339432,194.268021 127.091278,179.353622
	C118.161339,153.976212 123.959564,113.300102 166.468521,96.935204
	C186.933441,89.056709 208.175781,88.370804 229.473083,91.599014
	C241.076996,93.357933 252.411530,96.958076 263.801819,99.975922
	C265.129852,100.327782 266.984619,102.253960 266.998566,103.468597
	C267.204681,121.441986 267.140686,139.418472 267.140686,157.754944
	C259.666931,154.883118 252.696335,151.913055 245.534088,149.515533
	C232.185837,145.047302 218.462143,142.454056 204.319229,143.019348
	C200.709854,143.163620 197.041153,143.867661 193.568558,144.888763
	C188.883453,146.266418 185.895905,149.638763 185.320557,154.567459
	C184.774384,159.246140 186.556488,163.481918 190.601471,165.677917
	C197.137726,169.226471 204.061417,172.072342 210.878448,175.086105
	C212.947800,176.000992 215.204941,176.491089 217.774231,177.182190
z"/>
</svg>
