<?xml version="1.0" encoding="UTF-8" standalone="no"?>
<!DOCTYPE svg PUBLIC "-//W3C//DTD SVG 1.1//EN"
 "http://www.w3.org/Graphics/SVG/1.1/DTD/svg11.dtd">
<!-- Generated by graphviz version 2.43.0 (0)
 -->
<!-- Title: G Pages: 1 -->
<svg width="439pt" height="250pt"
 viewBox="0.00 0.00 439.20 250.20" xmlns="http://www.w3.org/2000/svg" xmlns:xlink="http://www.w3.org/1999/xlink">
<g id="graph0" class="graph" transform="scale(1 1) rotate(0) translate(21.6 228.6)">
<title>G</title>
<polygon fill="#111111" stroke="transparent" points="-21.6,21.6 -21.6,-228.6 417.6,-228.6 417.6,21.6 -21.6,21.6"/>
<!-- Visualization/echarts/themes/dark.js -->
<g id="node1" class="node">
<title>Visualization/echarts/themes/dark.js</title>
<path fill="none" stroke="#cfffac" d="M225.33,-23C225.33,-23 7.67,-23 7.67,-23 3.83,-23 0,-19.17 0,-15.33 0,-15.33 0,-7.67 0,-7.67 0,-3.83 3.83,0 7.67,0 7.67,0 225.33,0 225.33,0 229.17,0 233,-3.83 233,-7.67 233,-7.67 233,-15.33 233,-15.33 233,-19.17 229.17,-23 225.33,-23"/>
<text text-anchor="middle" x="116.5" y="-7.8" font-family="Arial" font-size="14.00" fill="#cfffac">Visualization/echarts/themes/dark.js</text>
</g>
<!-- api&#45;config.js -->
<g id="node2" class="node">
<title>api&#45;config.js</title>
<path fill="none" stroke="#cfffac" d="M153.33,-64C153.33,-64 79.67,-64 79.67,-64 75.83,-64 72,-60.17 72,-56.33 72,-56.33 72,-48.67 72,-48.67 72,-44.83 75.83,-41 79.67,-41 79.67,-41 153.33,-41 153.33,-41 157.17,-41 161,-44.83 161,-48.67 161,-48.67 161,-56.33 161,-56.33 161,-60.17 157.17,-64 153.33,-64"/>
<text text-anchor="middle" x="116.5" y="-48.8" font-family="Arial" font-size="14.00" fill="#cfffac">api&#45;config.js</text>
</g>
<!-- refresh&#45;knowledge&#45;base.js -->
<g id="node3" class="node">
<title>refresh&#45;knowledge&#45;base.js</title>
<path fill="none" stroke="#cfffac" d="M196.33,-105C196.33,-105 36.67,-105 36.67,-105 32.83,-105 29,-101.17 29,-97.33 29,-97.33 29,-89.67 29,-89.67 29,-85.83 32.83,-82 36.67,-82 36.67,-82 196.33,-82 196.33,-82 200.17,-82 204,-85.83 204,-89.67 204,-89.67 204,-97.33 204,-97.33 204,-101.17 200.17,-105 196.33,-105"/>
<text text-anchor="middle" x="116.5" y="-89.8" font-family="Arial" font-size="14.00" fill="#cfffac">refresh&#45;knowledge&#45;base.js</text>
</g>
<!-- test&#45;api.js -->
<g id="node4" class="node">
<title>test&#45;api.js</title>
<path fill="none" stroke="#cfffac" d="M145.83,-146C145.83,-146 87.17,-146 87.17,-146 83.33,-146 79.5,-142.17 79.5,-138.33 79.5,-138.33 79.5,-130.67 79.5,-130.67 79.5,-126.83 83.33,-123 87.17,-123 87.17,-123 145.83,-123 145.83,-123 149.67,-123 153.5,-126.83 153.5,-130.67 153.5,-130.67 153.5,-138.33 153.5,-138.33 153.5,-142.17 149.67,-146 145.83,-146"/>
<text text-anchor="middle" x="116.5" y="-130.8" font-family="Arial" font-size="14.00" fill="#cfffac">test&#45;api.js</text>
</g>
<!-- utils/api&#45;key&#45;diagnostics.js -->
<g id="node5" class="node">
<title>utils/api&#45;key&#45;diagnostics.js</title>
<path fill="none" stroke="#c6c5fe" d="M195.33,-187C195.33,-187 37.67,-187 37.67,-187 33.83,-187 30,-183.17 30,-179.33 30,-179.33 30,-171.67 30,-171.67 30,-167.83 33.83,-164 37.67,-164 37.67,-164 195.33,-164 195.33,-164 199.17,-164 203,-167.83 203,-171.67 203,-171.67 203,-179.33 203,-179.33 203,-183.17 199.17,-187 195.33,-187"/>
<text text-anchor="middle" x="116.5" y="-171.8" font-family="Arial" font-size="14.00" fill="#c6c5fe">utils/api&#45;key&#45;diagnostics.js</text>
</g>
<!-- utils/set&#45;api&#45;key.js -->
<g id="node6" class="node">
<title>utils/set&#45;api&#45;key.js</title>
<path fill="none" stroke="#cfffac" d="M386.33,-207C386.33,-207 278.67,-207 278.67,-207 274.83,-207 271,-203.17 271,-199.33 271,-199.33 271,-191.67 271,-191.67 271,-187.83 274.83,-184 278.67,-184 278.67,-184 386.33,-184 386.33,-184 390.17,-184 394,-187.83 394,-191.67 394,-191.67 394,-199.33 394,-199.33 394,-203.17 390.17,-207 386.33,-207"/>
<text text-anchor="middle" x="332.5" y="-191.8" font-family="Arial" font-size="14.00" fill="#cfffac">utils/set&#45;api&#45;key.js</text>
</g>
<!-- utils/api&#45;key&#45;diagnostics.js&#45;&gt;utils/set&#45;api&#45;key.js -->
<g id="edge1" class="edge">
<title>utils/api&#45;key&#45;diagnostics.js&#45;&gt;utils/set&#45;api&#45;key.js</title>
<path fill="none" stroke="#757575" d="M203,-183.49C222.16,-185.28 242.27,-187.16 260.75,-188.89"/>
<polygon fill="#757575" stroke="#757575" points="260.55,-192.38 270.83,-189.83 261.2,-185.41 260.55,-192.38"/>
</g>
<!-- utils/test&#45;api&#45;key.js -->
<g id="node7" class="node">
<title>utils/test&#45;api&#45;key.js</title>
<path fill="none" stroke="#cfffac" d="M388.33,-166C388.33,-166 276.67,-166 276.67,-166 272.83,-166 269,-162.17 269,-158.33 269,-158.33 269,-150.67 269,-150.67 269,-146.83 272.83,-143 276.67,-143 276.67,-143 388.33,-143 388.33,-143 392.17,-143 396,-146.83 396,-150.67 396,-150.67 396,-158.33 396,-158.33 396,-162.17 392.17,-166 388.33,-166"/>
<text text-anchor="middle" x="332.5" y="-150.8" font-family="Arial" font-size="14.00" fill="#cfffac">utils/test&#45;api&#45;key.js</text>
</g>
<!-- utils/api&#45;key&#45;diagnostics.js&#45;&gt;utils/test&#45;api&#45;key.js -->
<g id="edge2" class="edge">
<title>utils/api&#45;key&#45;diagnostics.js&#45;&gt;utils/test&#45;api&#45;key.js</title>
<path fill="none" stroke="#757575" d="M203,-167.11C221.48,-165.3 240.85,-163.4 258.79,-161.64"/>
<polygon fill="#757575" stroke="#757575" points="259.26,-165.11 268.87,-160.65 258.58,-158.14 259.26,-165.11"/>
</g>
</g>
</svg>
